<svg width="13" height="14" viewBox="0 0 13 14" fill="none" xmlns="http://www.w3.org/2000/svg">
<path d="M6.5 0.828125C3.02148 0.828125 0.203125 3.67188 0.203125 7.125C0.203125 10.6035 3.02148 13.4219 6.5 13.4219C9.95312 13.4219 12.7969 10.6035 12.7969 7.125C12.7969 3.67188 9.95312 0.828125 6.5 0.828125ZM6.5 2.04688C9.29297 2.04688 11.5781 4.33203 11.5781 7.125C11.5781 9.94336 9.29297 12.2031 6.5 12.2031C3.68164 12.2031 1.42188 9.94336 1.42188 7.125C1.42188 4.33203 3.68164 2.04688 6.5 2.04688ZM10.0547 5.37305L9.4707 4.78906C9.36914 4.66211 9.16602 4.66211 9.03906 4.78906L5.45898 8.34375L3.93555 6.82031C3.80859 6.69336 3.63086 6.69336 3.50391 6.82031L2.91992 7.37891C2.81836 7.50586 2.81836 7.70898 2.91992 7.81055L5.23047 10.1465C5.35742 10.2734 5.53516 10.2734 5.66211 10.1465L10.0547 5.80469C10.1562 5.67773 10.1562 5.47461 10.0547 5.37305Z" fill="#1575B7"/>
</svg>
