<svg width="14" height="10" viewBox="0 0 14 10" fill="none" xmlns="http://www.w3.org/2000/svg">
<path d="M13.3499 3.36621C12.7562 3.83083 12.0076 4.39871 9.37474 6.30883C8.85849 6.69601 7.90343 7.54782 7 7.54782C6.07075 7.54782 5.14151 6.69601 4.59945 6.30883C1.96658 4.39871 1.21802 3.83083 0.624335 3.36621C0.521086 3.28877 0.392024 3.36621 0.392024 3.49527V8.761C0.392024 9.45794 0.934084 10 1.63102 10H12.369C13.0401 10 13.608 9.45794 13.608 8.761V3.49527C13.608 3.36621 13.4531 3.28877 13.3499 3.36621ZM7 6.69601C7.59369 6.72182 8.44549 5.94745 8.88431 5.6377C12.3174 3.15971 12.5755 2.9274 13.3499 2.3079C13.5047 2.20465 13.608 2.02397 13.608 1.81747V1.32703C13.608 0.655908 13.0401 0.0880353 12.369 0.0880353H1.63102C0.934084 0.0880353 0.392024 0.655908 0.392024 1.32703V1.81747C0.392024 2.02397 0.469461 2.20465 0.624335 2.3079C1.39871 2.9274 1.65683 3.15971 5.08988 5.6377C5.52869 5.94745 6.3805 6.72182 7 6.69601Z" fill="white"/>
</svg>
