<svg width="11" height="15" viewBox="0 0 11 15" fill="none" xmlns="http://www.w3.org/2000/svg">
<path d="M4.95312 14.5266C5.19922 14.9094 5.77344 14.9094 6.01953 14.5266C10.0117 8.78442 10.75 8.18286 10.75 6.05005C10.75 3.15161 8.39844 0.800049 5.5 0.800049C2.57422 0.800049 0.25 3.15161 0.25 6.05005C0.25 8.18286 0.960938 8.78442 4.95312 14.5266ZM5.5 8.23755C4.26953 8.23755 3.3125 7.28052 3.3125 6.05005C3.3125 4.84692 4.26953 3.86255 5.5 3.86255C6.70312 3.86255 7.6875 4.84692 7.6875 6.05005C7.6875 7.28052 6.70312 8.23755 5.5 8.23755Z" fill="#FEFEFE"/>
</svg>
