<svg width="14" height="14" viewBox="0 0 14 14" fill="none" xmlns="http://www.w3.org/2000/svg">
<path d="M13.2208 9.78013L10.3298 8.54114C10.2524 8.51532 10.1749 8.48951 10.0717 8.48951C9.89099 8.48951 9.7103 8.59276 9.60705 8.72182L8.31643 10.2964C6.30306 9.34132 4.7027 7.74095 3.74764 5.72758L5.32219 4.43696C5.45126 4.33371 5.55451 4.15303 5.55451 3.94653C5.55451 3.86909 5.52869 3.79165 5.50288 3.71422L4.26388 0.823227C4.16064 0.590916 3.92832 0.436041 3.6702 0.436041C3.64439 0.436041 3.59276 0.461854 3.54114 0.461854L0.856647 1.08135C0.57271 1.15879 0.392024 1.3911 0.392024 1.67504C0.392024 8.30883 5.73519 13.652 12.369 13.652C12.6529 13.652 12.8852 13.4713 12.9627 13.1874L13.5822 10.5029C13.5822 10.4513 13.5822 10.3996 13.5822 10.3738C13.5822 10.1157 13.4273 9.88338 13.2208 9.78013Z" fill="white"/>
</svg>
